<?xml version="1.0" standalone="no"?>
<!DOCTYPE svg PUBLIC "-//W3C//DTD SVG 20010904//EN"
 "http://www.w3.org/TR/2001/REC-SVG-20010904/DTD/svg10.dtd">
<svg version="1.0" xmlns="http://www.w3.org/2000/svg"
 width="260.000000pt" height="260.000000pt" viewBox="0 0 260.000000 260.000000"
 preserveAspectRatio="xMidYMid meet">
<metadata>
Created by potrace 1.11, written by Peter Selinger 2001-2013
</metadata>
<g transform="translate(0.000000,260.000000) scale(0.100000,-0.100000)"
fill="#000000" stroke="none">
<path d="M0 1300 l0 -1300 1300 0 1300 0 0 1300 0 1300 -1300 0 -1300 0 0
-1300z m1020 580 c24 -24 25 -39 6 -66 -13 -18 -31 -19 -253 -24 l-238 -5 -3
-142 -3 -143 214 0 c228 0 237 -2 237 -50 0 -48 -9 -50 -237 -50 l-213 0 2
-162 3 -163 243 -5 c226 -5 245 -6 258 -24 18 -25 18 -36 -2 -64 -15 -22 -18
-22 -272 -22 -225 0 -261 2 -292 18 -59 29 -61 47 -58 472 3 418 4 419 71 439
17 5 141 10 275 10 229 1 243 0 262 -19z m637 8 c4 -7 10 -110 13 -230 l5
-216 219 229 c230 241 244 252 288 212 36 -32 23 -53 -144 -220 l-161 -161
170 -219 c93 -120 176 -227 183 -239 29 -47 -23 -109 -70 -84 -11 6 -94 110
-186 233 -92 122 -169 224 -171 226 -2 3 -33 -24 -68 -59 l-65 -64 0 -151 c0
-171 -6 -189 -60 -187 -18 0 -38 6 -44 12 -8 8 -12 144 -14 447 -3 488 -4 483
63 483 18 0 37 -6 42 -12z m-332 -793 c53 -52 18 -135 -57 -135 -51 0 -78 27
-78 79 0 73 84 108 135 56z"/>
</g>
</svg>
